<svg xmlns="http://www.w3.org/2000/svg" version="1.1" xmlns:xlink="http://www.w3.org/1999/xlink" viewBox="0 0 200 200" width="200" height="200"><rect width="200" height="200" fill="url('#gradient')"></rect><defs><linearGradient id="gradient" gradientTransform="rotate(45 0.5 0.5)"><stop offset="0%" stop-color="#2eea07"></stop><stop offset="100%" stop-color="#3c8b07"></stop></linearGradient></defs><g><g fill="#ffffff" transform="matrix(2.1686807026286283,0,0,2.1686807026286283,13.542380064358312,115.42357720695487)" stroke="#0e5278" stroke-width="0"><path d="M13.12-7.47L13.12-6.82Q13.12-4.74 12.34-3.13Q11.57-1.53 10.15-0.67Q8.73 0.20 6.91 0.20Q5.10 0.20 3.69-0.64Q2.29-1.47 1.50-3.03Q0.71-4.58 0.67-6.59L0.67-6.59L0.67-7.39Q0.67-9.48 1.44-11.08Q2.21-12.68 3.64-13.54Q5.07-14.41 6.89-14.41L6.89-14.41Q8.70-14.41 10.12-13.55Q11.53-12.70 12.32-11.11Q13.11-9.52 13.12-7.47L13.12-7.47ZM9.63-6.76L9.63-7.41Q9.63-9.53 8.92-10.63Q8.21-11.73 6.89-11.73L6.89-11.73Q4.32-11.73 4.17-7.86L4.17-7.86L4.16-6.82Q4.16-4.73 4.85-3.60Q5.55-2.48 6.91-2.48L6.91-2.48Q8.21-2.48 8.92-3.58Q9.62-4.69 9.63-6.76L9.63-6.76ZM26.76-14.22L26.76 0L23.35 0L18.31-8.85L18.31 0L14.88 0L14.88-14.22L18.31-14.22L23.34-5.37L23.34-14.22L26.76-14.22ZM38.01 0L37.18-2.66L32.48-2.66L31.66 0L28.00 0L33.21-14.22L36.44-14.22L41.69 0L38.01 0ZM34.82-10.23L33.30-5.30L36.36-5.30L34.82-10.23ZM54.16-7.60L54.16-1.76Q53.37-0.88 51.85-0.34Q50.32 0.20 48.51 0.20L48.51 0.20Q45.71 0.20 44.04-1.51Q42.37-3.22 42.26-6.27L42.26-6.27L42.25-7.50Q42.25-9.60 42.99-11.17Q43.73-12.73 45.11-13.58Q46.49-14.42 48.31-14.42L48.31-14.42Q50.97-14.42 52.44-13.21Q53.91-11.99 54.15-9.58L54.15-9.58L50.85-9.58Q50.67-10.77 50.09-11.28Q49.50-11.79 48.43-11.79L48.43-11.79Q47.14-11.79 46.44-10.69Q45.73-9.60 45.72-7.57L45.72-7.57L45.72-6.71Q45.72-4.58 46.45-3.51Q47.18-2.44 48.74-2.44L48.74-2.44Q50.08-2.44 50.73-3.04L50.73-3.04L50.73-5.24L48.35-5.24L48.35-7.60L54.16-7.60ZM63.88-14.22L67.30-14.22L67.30-4.91Q67.30-3.33 66.63-2.17Q65.96-1.02 64.70-0.41Q63.44 0.20 61.72 0.20L61.72 0.20Q59.12 0.20 57.63-1.15Q56.13-2.50 56.10-4.84L56.10-4.84L56.10-14.22L59.55-14.22L59.55-4.78Q59.61-2.44 61.72-2.44L61.72-2.44Q62.78-2.44 63.33-3.03Q63.88-3.61 63.88-4.93L63.88-4.93L63.88-14.22ZM73.10-14.22L73.10 0L69.68 0L69.68-14.22L73.10-14.22ZM79.01-14.22L78.59-4.50L75.93-4.50L75.51-14.22L79.01-14.22ZM75.41-1.47L75.41-1.47Q75.41-2.20 75.93-2.66Q76.46-3.13 77.24-3.13Q78.02-3.13 78.54-2.66Q79.06-2.20 79.06-1.47Q79.06-0.75 78.54-0.29Q78.02 0.18 77.24 0.18Q76.46 0.18 75.93-0.29Q75.41-0.75 75.41-1.47Z"></path></g></g></svg>